<mxfile host="www.draw.io" modified="2020-01-17T13:46:49.592Z" agent="Mozilla/5.0 (Windows NT 10.0; Win64; x64) AppleWebKit/537.36 (KHTML, like Gecko) Chrome/76.0.3809.100 Safari/537.36" etag="Ckpp3q0AYlyk7ZxW7FHN" version="12.5.5" type="github">
  <diagram id="KHUmmrRvuqtqpvikhF0g" name="Page-1">
    <mxGraphModel dx="652" dy="350" grid="0" gridSize="10" guides="1" tooltips="1" connect="1" arrows="1" fold="1" page="1" pageScale="1" pageWidth="850" pageHeight="1100" math="0" shadow="0">
      <root>
        <mxCell id="0"/>
        <mxCell id="1" parent="0"/>
        <mxCell id="3RwoFmypabzo7vE2D890-11" value="" style="edgeStyle=orthogonalEdgeStyle;rounded=0;orthogonalLoop=1;jettySize=auto;html=1;" parent="1" source="3RwoFmypabzo7vE2D890-2" target="3RwoFmypabzo7vE2D890-3" edge="1">
          <mxGeometry relative="1" as="geometry"/>
        </mxCell>
        <mxCell id="3RwoFmypabzo7vE2D890-2" value="Ag&lt;span lang=&quot;EN-US&quot; style=&quot;font-size: 11.0pt ; line-height: 107% ; font-family: &amp;#34;calibri&amp;#34; , sans-serif&quot;&gt;ê&lt;/span&gt;ncia/cliente requisita numer&lt;span lang=&quot;EN-US&quot; style=&quot;font-size: 11.0pt ; line-height: 107% ; font-family: &amp;#34;calibri&amp;#34; , sans-serif&quot;&gt;á&lt;/span&gt;rio" style="rounded=0;whiteSpace=wrap;html=1;" parent="1" vertex="1">
          <mxGeometry x="200" y="105" width="120" height="60" as="geometry"/>
        </mxCell>
        <mxCell id="3RwoFmypabzo7vE2D890-12" value="" style="edgeStyle=orthogonalEdgeStyle;rounded=0;orthogonalLoop=1;jettySize=auto;html=1;entryX=0;entryY=0.5;entryDx=0;entryDy=0;" parent="1" source="3RwoFmypabzo7vE2D890-3" target="3RwoFmypabzo7vE2D890-7" edge="1">
          <mxGeometry relative="1" as="geometry">
            <mxPoint x="520" y="135" as="targetPoint"/>
          </mxGeometry>
        </mxCell>
        <mxCell id="3RwoFmypabzo7vE2D890-3" value="Tesouraria Central acusa a recep&lt;span lang=&quot;EN-US&quot; style=&quot;font-size: 11.0pt ; line-height: 107% ; font-family: &amp;#34;calibri&amp;#34; , sans-serif&quot;&gt;ção&lt;/span&gt;" style="rounded=0;whiteSpace=wrap;html=1;" parent="1" vertex="1">
          <mxGeometry x="365" y="105" width="120" height="60" as="geometry"/>
        </mxCell>
        <mxCell id="3RwoFmypabzo7vE2D890-15" value="" style="edgeStyle=orthogonalEdgeStyle;rounded=0;orthogonalLoop=1;jettySize=auto;html=1;" parent="1" source="3RwoFmypabzo7vE2D890-7" target="3RwoFmypabzo7vE2D890-36" edge="1">
          <mxGeometry relative="1" as="geometry">
            <mxPoint x="670" y="135" as="targetPoint"/>
          </mxGeometry>
        </mxCell>
        <mxCell id="3RwoFmypabzo7vE2D890-7" value="Dentro dos limites?" style="rhombus;whiteSpace=wrap;html=1;" parent="1" vertex="1">
          <mxGeometry x="560" y="95" width="80" height="80" as="geometry"/>
        </mxCell>
        <mxCell id="3RwoFmypabzo7vE2D890-10" value="" style="edgeStyle=orthogonalEdgeStyle;rounded=0;orthogonalLoop=1;jettySize=auto;html=1;" parent="1" source="3RwoFmypabzo7vE2D890-8" target="3RwoFmypabzo7vE2D890-2" edge="1">
          <mxGeometry relative="1" as="geometry"/>
        </mxCell>
        <mxCell id="3RwoFmypabzo7vE2D890-8" value="In&lt;span lang=&quot;EN-US&quot; style=&quot;font-size: 11.0pt ; line-height: 107% ; font-family: &amp;#34;calibri&amp;#34; , sans-serif&quot;&gt;í&lt;/span&gt;cio" style="ellipse;whiteSpace=wrap;html=1;" parent="1" vertex="1">
          <mxGeometry x="13" y="110" width="120" height="50" as="geometry"/>
        </mxCell>
        <mxCell id="3RwoFmypabzo7vE2D890-13" value="Via email" style="rounded=1;whiteSpace=wrap;html=1;" parent="1" vertex="1">
          <mxGeometry x="365" y="75" width="120" height="30" as="geometry"/>
        </mxCell>
        <mxCell id="3RwoFmypabzo7vE2D890-20" value="" style="edgeStyle=orthogonalEdgeStyle;rounded=0;orthogonalLoop=1;jettySize=auto;html=1;exitX=0.628;exitY=0.729;exitDx=0;exitDy=0;exitPerimeter=0;" parent="1" source="3RwoFmypabzo7vE2D890-36" edge="1">
          <mxGeometry relative="1" as="geometry">
            <mxPoint x="730" y="165" as="sourcePoint"/>
            <mxPoint x="767" y="210" as="targetPoint"/>
          </mxGeometry>
        </mxCell>
        <mxCell id="3RwoFmypabzo7vE2D890-16" value="A G4S apresenta-se a Tesouraria Central" style="rounded=0;whiteSpace=wrap;html=1;" parent="1" vertex="1">
          <mxGeometry x="200" y="210" width="120" height="60" as="geometry"/>
        </mxCell>
        <mxCell id="3RwoFmypabzo7vE2D890-24" value="" style="edgeStyle=orthogonalEdgeStyle;rounded=0;orthogonalLoop=1;jettySize=auto;html=1;" parent="1" source="3RwoFmypabzo7vE2D890-25" target="3RwoFmypabzo7vE2D890-16" edge="1">
          <mxGeometry relative="1" as="geometry">
            <mxPoint x="365" y="220" as="sourcePoint"/>
          </mxGeometry>
        </mxCell>
        <mxCell id="3RwoFmypabzo7vE2D890-23" value="" style="edgeStyle=orthogonalEdgeStyle;rounded=0;orthogonalLoop=1;jettySize=auto;html=1;entryX=1;entryY=0.5;entryDx=0;entryDy=0;" parent="1" source="3RwoFmypabzo7vE2D890-18" target="3RwoFmypabzo7vE2D890-25" edge="1">
          <mxGeometry relative="1" as="geometry">
            <mxPoint x="470" y="220" as="targetPoint"/>
          </mxGeometry>
        </mxCell>
        <mxCell id="3RwoFmypabzo7vE2D890-18" value="A G4S envia os detalhes da viatura que efectuara o transporte do valor" style="rounded=0;whiteSpace=wrap;html=1;" parent="1" vertex="1">
          <mxGeometry x="540" y="210" width="120" height="60" as="geometry"/>
        </mxCell>
        <mxCell id="3RwoFmypabzo7vE2D890-22" value="" style="edgeStyle=orthogonalEdgeStyle;rounded=0;orthogonalLoop=1;jettySize=auto;html=1;" parent="1" source="3RwoFmypabzo7vE2D890-19" target="3RwoFmypabzo7vE2D890-18" edge="1">
          <mxGeometry relative="1" as="geometry"/>
        </mxCell>
        <mxCell id="3RwoFmypabzo7vE2D890-19" value="Tesouraria Central comunica a G4S" style="rounded=0;whiteSpace=wrap;html=1;" parent="1" vertex="1">
          <mxGeometry x="702" y="210" width="120" height="60" as="geometry"/>
        </mxCell>
        <mxCell id="3RwoFmypabzo7vE2D890-21" value="Via email" style="rounded=1;whiteSpace=wrap;html=1;" parent="1" vertex="1">
          <mxGeometry x="701" y="270" width="121" height="28" as="geometry"/>
        </mxCell>
        <mxCell id="3RwoFmypabzo7vE2D890-25" value="24 horas depois?" style="rhombus;whiteSpace=wrap;html=1;" parent="1" vertex="1">
          <mxGeometry x="400" y="200" width="80" height="80" as="geometry"/>
        </mxCell>
        <mxCell id="3RwoFmypabzo7vE2D890-39" value="" style="edgeStyle=orthogonalEdgeStyle;rounded=0;orthogonalLoop=1;jettySize=auto;html=1;" parent="1" source="3RwoFmypabzo7vE2D890-27" target="3RwoFmypabzo7vE2D890-33" edge="1">
          <mxGeometry relative="1" as="geometry"/>
        </mxCell>
        <mxCell id="3RwoFmypabzo7vE2D890-27" value="A G4S transporta o valor" style="rounded=0;whiteSpace=wrap;html=1;" parent="1" vertex="1">
          <mxGeometry x="372" y="350" width="120" height="70" as="geometry"/>
        </mxCell>
        <mxCell id="3RwoFmypabzo7vE2D890-29" value="Via email" style="rounded=1;whiteSpace=wrap;html=1;" parent="1" vertex="1">
          <mxGeometry x="540" y="270" width="120" height="30" as="geometry"/>
        </mxCell>
        <mxCell id="3RwoFmypabzo7vE2D890-32" value="" style="edgeStyle=orthogonalEdgeStyle;rounded=0;orthogonalLoop=1;jettySize=auto;html=1;entryX=0.5;entryY=0;entryDx=0;entryDy=0;" parent="1" source="3RwoFmypabzo7vE2D890-30" target="3RwoFmypabzo7vE2D890-37" edge="1">
          <mxGeometry relative="1" as="geometry">
            <mxPoint x="263" y="340" as="targetPoint"/>
          </mxGeometry>
        </mxCell>
        <mxCell id="3RwoFmypabzo7vE2D890-30" value="Manual" style="rounded=1;whiteSpace=wrap;html=1;" parent="1" vertex="1">
          <mxGeometry x="200" y="270" width="120" height="30" as="geometry"/>
        </mxCell>
        <mxCell id="3RwoFmypabzo7vE2D890-40" value="" style="edgeStyle=orthogonalEdgeStyle;rounded=0;orthogonalLoop=1;jettySize=auto;html=1;entryX=0;entryY=0.25;entryDx=0;entryDy=0;" parent="1" source="3RwoFmypabzo7vE2D890-33" target="3RwoFmypabzo7vE2D890-34" edge="1">
          <mxGeometry relative="1" as="geometry">
            <mxPoint x="707" y="388" as="targetPoint"/>
            <Array as="points">
              <mxPoint x="668" y="388"/>
              <mxPoint x="668" y="388"/>
            </Array>
          </mxGeometry>
        </mxCell>
        <mxCell id="3RwoFmypabzo7vE2D890-33" value="Ag&lt;span lang=&quot;EN-US&quot; style=&quot;font-size: 11.0pt ; line-height: 107% ; font-family: &amp;#34;calibri&amp;#34; , sans-serif&quot;&gt;ê&lt;/span&gt;ncia/cliente efectua a recep&lt;span lang=&quot;EN-US&quot; style=&quot;font-size: 11.0pt ; line-height: 107% ; font-family: &amp;#34;calibri&amp;#34; , sans-serif&quot;&gt;ção&amp;nbsp;&lt;/span&gt;do valor e da respectiva ced&lt;span style=&quot;font-family: &amp;#34;calibri&amp;#34; , sans-serif ; font-size: 14.6667px&quot;&gt;ê&lt;/span&gt;ncia" style="rounded=0;whiteSpace=wrap;html=1;" parent="1" vertex="1">
          <mxGeometry x="534" y="349" width="120" height="72" as="geometry"/>
        </mxCell>
        <mxCell id="3RwoFmypabzo7vE2D890-42" value="" style="edgeStyle=orthogonalEdgeStyle;rounded=0;orthogonalLoop=1;jettySize=auto;html=1;" parent="1" source="3RwoFmypabzo7vE2D890-34" target="3RwoFmypabzo7vE2D890-41" edge="1">
          <mxGeometry relative="1" as="geometry"/>
        </mxCell>
        <mxCell id="3RwoFmypabzo7vE2D890-34" value="O cliente confirma a recep&lt;span style=&quot;font-family: &amp;#34;calibri&amp;#34; , sans-serif ; font-size: 14.6667px&quot;&gt;ção&lt;/span&gt;&amp;nbsp;do numer&lt;span style=&quot;font-family: &amp;#34;calibri&amp;#34; , sans-serif ; font-size: 14.6667px&quot;&gt;á&lt;/span&gt;rio junto a Tesouraria Central" style="rounded=0;whiteSpace=wrap;html=1;" parent="1" vertex="1">
          <mxGeometry x="707" y="367" width="120" height="82" as="geometry"/>
        </mxCell>
        <mxCell id="3RwoFmypabzo7vE2D890-36" value="&lt;span style=&quot;font-size: 10.6667px ; white-space: normal&quot;&gt;A&lt;/span&gt;&lt;br style=&quot;font-size: 10.6667px ; white-space: normal&quot;&gt;&lt;span style=&quot;font-size: 10.6667px ; white-space: normal&quot;&gt;Tesouraria Central planifica as cedências do dia seguinte&lt;/span&gt;" style="shape=document;whiteSpace=wrap;html=1;boundedLbl=1;" parent="1" vertex="1">
          <mxGeometry x="692" y="95" width="120" height="80" as="geometry"/>
        </mxCell>
        <mxCell id="3RwoFmypabzo7vE2D890-38" value="" style="edgeStyle=orthogonalEdgeStyle;rounded=0;orthogonalLoop=1;jettySize=auto;html=1;exitX=1.014;exitY=0.393;exitDx=0;exitDy=0;exitPerimeter=0;" parent="1" source="3RwoFmypabzo7vE2D890-37" target="3RwoFmypabzo7vE2D890-27" edge="1">
          <mxGeometry relative="1" as="geometry"/>
        </mxCell>
        <mxCell id="3RwoFmypabzo7vE2D890-37" value="&lt;span style=&quot;white-space: normal&quot;&gt;Os tesoureiros e a G4S efectuam o preenchmento das guias de entrega de numer&lt;/span&gt;&lt;span style=&quot;font-family: &amp;#34;calibri&amp;#34; , sans-serif ; font-size: 14.6667px&quot;&gt;á&lt;/span&gt;&lt;span style=&quot;white-space: normal&quot;&gt;rio&amp;nbsp;&lt;/span&gt;" style="shape=document;whiteSpace=wrap;html=1;boundedLbl=1;" parent="1" vertex="1">
          <mxGeometry x="190" y="350" width="140" height="90" as="geometry"/>
        </mxCell>
        <mxCell id="3RwoFmypabzo7vE2D890-41" value="Fim" style="ellipse;whiteSpace=wrap;html=1;" parent="1" vertex="1">
          <mxGeometry x="707" y="494" width="120" height="50" as="geometry"/>
        </mxCell>
        <mxCell id="3RwoFmypabzo7vE2D890-43" value="Manual" style="rounded=1;whiteSpace=wrap;html=1;" parent="1" vertex="1">
          <mxGeometry x="534" y="422" width="120" height="30" as="geometry"/>
        </mxCell>
        <mxCell id="3RwoFmypabzo7vE2D890-44" value="Via email" style="rounded=1;whiteSpace=wrap;html=1;direction=north;" parent="1" vertex="1">
          <mxGeometry x="708" y="347" width="119" height="20" as="geometry"/>
        </mxCell>
        <mxCell id="3RwoFmypabzo7vE2D890-48" value="Via email" style="rounded=1;whiteSpace=wrap;html=1;" parent="1" vertex="1">
          <mxGeometry x="200" y="75" width="120" height="30" as="geometry"/>
        </mxCell>
        <mxCell id="3RwoFmypabzo7vE2D890-54" value="&lt;b&gt;AS IS&lt;br&gt;Cash In Transit process&lt;/b&gt;" style="text;html=1;strokeColor=#3399FF;fillColor=none;align=center;verticalAlign=middle;whiteSpace=wrap;rounded=0;" parent="1" vertex="1">
          <mxGeometry x="9" y="5" width="185" height="67" as="geometry"/>
        </mxCell>
      </root>
    </mxGraphModel>
  </diagram>
</mxfile>
